<svg width="17" height="17" viewBox="0 0 17 17" fill="none" xmlns="http://www.w3.org/2000/svg">
<rect width="16.0256" height="16.0256" rx="2.67093" fill="#E8F5E9"/>
<g clip-path="url(#clip0_212_1586)">
<path fill-rule="evenodd" clip-rule="evenodd" d="M3.45683 0.0649414C5.30071 0.0649414 6.79549 1.55971 6.79549 3.40361V0.0649414H10.1342C11.978 0.0649414 13.4728 1.55971 13.4728 3.40361C13.4728 5.24748 11.978 6.74227 10.1342 6.74227C11.978 6.74227 13.4728 8.23706 13.4728 10.0809C13.4728 10.9965 13.1043 11.826 12.5075 12.4292L12.495 12.4417L12.4839 12.4528C11.8806 13.0504 11.0505 13.4196 10.1342 13.4196C9.22407 13.4196 8.39902 13.0555 7.79676 12.4649C7.78895 12.4572 7.78114 12.4495 7.77336 12.4417C7.76604 12.4344 7.75877 12.4271 7.75152 12.4197C7.16021 11.8173 6.79549 10.9917 6.79549 10.0809C6.79549 11.9248 5.30071 13.4196 3.45683 13.4196C1.61293 13.4196 0.118164 11.9248 0.118164 10.0809V6.74227H3.45683C1.61293 6.74227 0.118164 5.24748 0.118164 3.40361C0.118164 1.55971 1.61293 0.0649414 3.45683 0.0649414ZM6.12776 3.40361C6.12776 4.87873 4.93195 6.07454 3.45683 6.07454V0.732674C4.93195 0.732674 6.12776 1.92849 6.12776 3.40361ZM12.8051 10.0809C12.8051 8.60581 11.6093 7.41001 10.1342 7.41001C8.65904 7.41001 7.46323 8.60581 7.46323 10.0809H12.8051ZM0.785897 7.41001V10.0809C0.785897 11.5561 1.98171 12.7519 3.45683 12.7519C4.93195 12.7519 6.12776 11.5561 6.12776 10.0809V7.41001H0.785897ZM7.46323 6.07454V0.732674H10.1342C11.6093 0.732674 12.8051 1.92849 12.8051 3.40361C12.8051 4.87873 11.6093 6.07454 10.1342 6.07454H7.46323Z" fill="#5417D7"/>
</g>
<defs>
<clipPath id="clip0_212_1586">
<rect width="13.3547" height="13.3547" fill="white" transform="translate(0.118164 0.0649414)"/>
</clipPath>
</defs>
</svg>
