<svg width="17" height="17" viewBox="0 0 17 17" fill="none" xmlns="http://www.w3.org/2000/svg">
<rect width="16.0256" height="16.0256" rx="2.67093" fill="#F5F7FA"/>
<g clip-path="url(#clip0_212_1589)">
<path fill-rule="evenodd" clip-rule="evenodd" d="M3.37152 4.66121L0.0375977 7.96161C0.704443 8.62176 1.46621 9.17812 2.29675 9.61338C2.52632 10.2162 2.88616 10.7815 3.37626 11.2667C5.22017 13.0921 8.20972 13.0921 10.0536 11.2667C10.5437 10.7815 10.9036 10.2162 11.1331 9.61334C11.9636 9.17812 12.7254 8.62176 13.3923 7.96161L10.061 4.66389C10.0586 4.66143 10.0561 4.65896 10.0536 4.65649C8.20972 2.83114 5.22017 2.83114 3.37626 4.65649C3.37468 4.65807 3.3731 4.65964 3.37152 4.66121ZM9.73458 10.2088C8.76303 10.5334 7.74314 10.6996 6.71493 10.6996C5.68672 10.6996 4.66686 10.5334 3.69531 10.2088C3.80057 10.3471 3.91679 10.4798 4.044 10.6057C5.51912 12.066 7.91074 12.066 9.38586 10.6057C9.51306 10.4798 9.62932 10.3471 9.73458 10.2088ZM4.11247 5.25141C4.36297 5.41524 4.62933 5.55544 4.90804 5.66973C5.48089 5.90463 6.09487 6.02553 6.71493 6.02553C7.33499 6.02553 7.94897 5.90463 8.52181 5.66973C8.80053 5.55544 9.06688 5.41524 9.31742 5.2514C7.86069 3.87926 5.56917 3.87927 4.11247 5.25141Z" fill="#3B4158"/>
</g>
<defs>
<clipPath id="clip0_212_1589">
<rect width="13.3547" height="9.34826" fill="white" transform="translate(0.0375977 3.28748)"/>
</clipPath>
</defs>
</svg>
